# xmcd
#
# Track frame offsets: 
#        150
#        19269
#        43518
#        57302
#        76263
#        99702
#        114687
#        130975
#        156945
#        174023
#
# Disc length: 2560 seconds
#
# Revision: 0
# Processed by: cddbd v1.5.2PL0 Copyright (c) Steve Scherf et al.
# Submitted via: ExactAudioCopyFreeDBPlugin 1.0
#
DISCID=7b09fe0a
DTITLE=Lachlan Bryan and The Wildes - Black Coffee
DYEAR=2013
DGENRE=
TTITLE0=309
TTITLE1=Big Fish
TTITLE2=You, Me and the Blues
TTITLE3=Deathwish Country
TTITLE4=Dragging My Chain
TTITLE5=Black Coffee
TTITLE6=Change in the Wind
TTITLE7=The CEO Must Die
TTITLE8=Kiss Me or Kill Me
TTITLE9=Forty Days and Nights
EXTD=
EXTT0=
EXTT1=
EXTT2=
EXTT3=
EXTT4=
EXTT5=
EXTT6=
EXTT7=
EXTT8=
EXTT9=
PLAYORDER=
